<svg width="72" height="72" viewBox="0 0 72 72" fill="none" xmlns="http://www.w3.org/2000/svg">
<mask id="mask0_2436_12070" style="mask-type:luminance" maskUnits="userSpaceOnUse" x="0" y="0" width="72" height="72">
<path d="M72 0H0V72H72V0Z" fill="white"/>
</mask>
<g mask="url(#mask0_2436_12070)">
<path d="M35.9983 72C55.8806 72 72 55.8822 72 35.9998C72 16.1178 55.8806 0 35.9983 0C16.116 0 0 16.1178 0 35.9998C0 55.8822 16.116 72 35.9983 72Z" fill="#191977"/>
<path d="M26.9932 22.7896L9.79581 11.324C9.10425 12.0576 8.4432 12.8196 7.81605 13.6095L26.9932 26.3953V27.0007H17.0843L4.48032 18.5965C3.99216 19.4763 3.5447 20.381 3.13112 21.3038L11.6773 27.0007H1.12763C0.876769 27.9838 0.669988 28.9866 0.500488 30.0005H29.9934V0.507812C28.9798 0.677991 27.9763 0.881728 26.9932 1.13496V22.7896Z" fill="white"/>
<path d="M0.500488 42C0.669988 43.014 0.876769 44.0167 1.12763 45.0002H11.6773L3.13112 50.6971C3.5447 51.6202 3.99216 52.5243 4.48032 53.4043L17.0843 45.0002H26.9932V45.6056L7.81605 58.3914C8.4432 59.1812 9.10425 59.9433 9.79581 60.6769L26.9932 49.2112V70.8659C27.9763 71.1191 28.9798 71.3229 29.9934 71.493V42.0003L0.500488 42Z" fill="white"/>
<path d="M71.4851 30.0005C71.3122 28.9866 71.1088 27.9838 70.858 27.0007H60.3083L68.851 21.3038C68.4375 20.3807 67.9934 19.4763 67.5053 18.5965L54.8979 27.0007H44.9923V26.3953L64.1695 13.6095C63.5423 12.8196 62.8813 12.0576 62.1897 11.324L44.9923 22.7896V1.13496C44.0058 0.881728 43.0058 0.677991 41.9922 0.507812V30.0005H71.4851Z" fill="white"/>
<path d="M41.9922 42V71.4927C43.0058 71.3225 44.0058 71.1188 44.9923 70.8659V49.2109L62.1897 60.6769C62.8813 59.9433 63.5423 59.1809 64.1695 58.3914L44.9923 45.6056V45.0002H54.8979L67.5053 53.4043C67.9934 52.5243 68.4375 51.6198 68.851 50.6967L60.3083 45.0002H70.8545C71.1088 44.0167 71.3122 43.014 71.4817 42H41.9922Z" fill="white"/>
<path d="M27.0041 27.0006V26.3951L7.82352 13.6094C6.57939 15.1722 5.46072 16.8377 4.48779 18.5964L17.0951 27.0006H27.0041Z" fill="#F0263C"/>
<path d="M67.5114 18.5964C66.5385 16.8377 65.4198 15.1722 64.1756 13.6094L44.9951 26.3951V27.0006H54.904L67.5114 18.5964Z" fill="#F0263C"/>
<path d="M4.48779 53.4051C5.46072 55.1639 6.57939 56.8294 7.82352 58.3922L27.0007 45.6064V45.001H17.0951L4.48779 53.4051Z" fill="#F0263C"/>
<path d="M44.9951 45.001V45.6064L64.1756 58.3922C65.4164 56.8294 66.5385 55.1639 67.5114 53.4051L54.904 45.001H44.9951Z" fill="#F0263C"/>
<path d="M71.4915 29.9999H41.9986V0.507142C40.046 0.179328 38.0459 0 35.9983 0C33.9542 0 31.9507 0.179328 29.998 0.507142V29.9999H0.505116C0.179677 31.9522 0 33.9546 0 35.9998C0 38.0454 0.179677 40.0478 0.505116 41.9998H29.998V71.4925C31.9507 71.8203 33.9542 71.9997 35.9983 71.9997C38.0459 71.9997 40.046 71.8203 41.9986 71.4925V41.9998H71.4915C71.8204 40.0478 72 38.045 72 35.9998C72 33.9546 71.8204 31.9522 71.4915 29.9999Z" fill="#F0263C"/>
</g>
<path d="M35.9961 71.1C55.3811 71.1 71.0957 55.3853 71.0957 36.0002C71.0957 16.6151 55.3811 0.900391 35.9961 0.900391C16.6111 0.900391 0.896484 16.6151 0.896484 36.0002C0.896484 55.3853 16.6111 71.1 35.9961 71.1Z" stroke="#0E0F0C" stroke-opacity="0.12" stroke-width="0.716621"/>
</svg>
